<!DOCTYPE svg PUBLIC "-//W3C//DTD SVG 20010904//EN" "http://www.w3.org/TR/2001/REC-SVG-20010904/DTD/svg10.dtd">
<svg version="1.0" xmlns="http://www.w3.org/2000/svg" width="512px" height="512px" viewBox="0 0 5120 5120" preserveAspectRatio="xMidYMid meet">
<g id="layer101" fill="#09499d" stroke="none">
 <path d="M799 4580 c-60 -10 -136 -50 -176 -92 -18 -18 -45 -60 -60 -93 l-28 -60 0 -1770 c0 -2028 -10 -1832 94 -1936 104 -104 -92 -94 1931 -94 1681 0 1767 1 1817 18 73 26 143 92 179 169 l29 63 0 1775 0 1775 -28 61 c-35 76 -84 125 -162 161 l-60 28 -1745 1 c-960 1 -1766 -2 -1791 -6z"/>
 </g>
<g id="layer102" fill="#0d68df" stroke="none">
 <path d="M775 4556 c-103 -33 -199 -114 -226 -192 -12 -33 -14 -322 -14 -1804 0 -2023 -10 -1827 94 -1931 104 -104 -92 -94 1931 -94 1675 0 1768 1 1817 18 104 37 167 119 193 252 8 44 10 524 8 1785 -3 1648 -4 1727 -21 1772 -25 63 -97 143 -161 176 l-51 27 -1765 2 c-1406 1 -1773 -1 -1805 -11z"/>
 </g>
<g id="layer103" fill="#fbfcfd" stroke="none">
 <path d="M1516 4006 c-21 -8 -51 -27 -67 -42 -52 -50 -59 -78 -59 -246 l-1 -153 -38 -26 c-21 -15 -48 -46 -60 -71 -20 -42 -21 -58 -21 -354 l0 -310 25 -51 c39 -78 101 -119 199 -132 l49 -6 72 -251 c40 -138 75 -264 79 -279 4 -14 18 -38 31 -51 l24 -24 266 0 265 0 0 -96 c0 -53 5 -114 11 -134 33 -111 156 -200 274 -200 118 0 241 89 274 200 6 20 11 81 11 134 l0 96 265 0 266 0 24 24 c13 13 27 37 31 51 4 15 39 141 79 279 l72 251 49 6 c98 13 160 54 199 132 l25 51 0 310 c0 296 -1 312 -21 354 -12 24 -39 56 -60 71 l-37 26 -4 167 -3 166 -31 39 c-59 72 -78 78 -264 78 -161 0 -166 -1 -210 -27 -27 -15 -54 -42 -68 -66 -20 -36 -22 -53 -22 -191 l0 -151 -575 0 -575 0 0 151 c0 138 -2 155 -22 191 -14 24 -41 51 -68 66 -43 26 -53 27 -195 30 -110 1 -160 -2 -189 -12z m302 -293 l3 -133 -131 0 -130 0 0 128 c0 71 3 132 7 136 4 3 61 5 127 4 l121 -3 3 -132z m1750 0 l3 -133 -131 0 -130 0 0 128 c0 71 3 132 7 136 4 3 61 5 127 4 l121 -3 3 -132z m120 -595 c2 -285 2 -287 -20 -307 -22 -21 -26 -21 -1103 -21 -1074 0 -1081 0 -1103 20 -22 20 -22 26 -22 304 0 155 3 286 7 289 3 4 509 6 1122 5 l1116 -3 3 -287z m-1654 -610 c138 -61 263 -111 279 -111 41 0 77 39 77 83 0 46 -23 67 -113 106 l-68 29 153 3 153 3 262 -116 c281 -125 294 -128 333 -78 46 59 17 109 -92 156 l-83 36 239 1 c186 0 237 -3 234 -12 -3 -7 -31 -106 -63 -220 l-59 -208 -721 0 -721 0 -59 208 c-32 114 -60 213 -63 220 -12 33 75 6 312 -100z m646 -583 c0 -98 -14 -136 -60 -160 -57 -30 -127 -10 -155 45 -10 19 -15 58 -15 115 l0 85 115 0 115 0 0 -85z"/>
 <path d="M1704 3326 c-51 -22 -111 -84 -130 -131 -26 -70 -17 -173 22 -227 16 -23 49 -56 73 -73 39 -27 50 -30 125 -30 74 0 87 3 131 30 135 83 154 267 41 379 -23 24 -59 47 -82 54 -54 16 -141 15 -180 -2z m146 -176 c44 -44 11 -120 -52 -120 -17 0 -40 7 -50 17 -23 20 -24 80 -1 105 22 24 77 24 103 -2z"/>
 <path d="M3223 3316 c-89 -42 -139 -131 -131 -236 6 -77 46 -144 113 -185 44 -27 57 -30 131 -30 75 0 86 3 125 30 24 17 57 50 73 73 39 54 48 157 22 227 -19 48 -80 109 -132 131 -53 22 -141 18 -201 -10z m159 -163 c23 -20 24 -80 1 -105 -22 -24 -77 -24 -103 2 -44 44 -11 120 52 120 17 0 40 -7 50 -17z"/>
 <path d="M2262 3284 c-13 -9 -27 -27 -33 -40 -13 -35 12 -91 46 -104 15 -6 140 -10 290 -10 150 0 275 4 290 10 34 13 59 69 46 104 -21 54 -32 56 -336 56 -241 0 -284 -2 -303 -16z"/>
 <path d="M2255 3045 c-38 -37 -37 -88 1 -122 25 -23 29 -23 307 -23 307 0 317 2 338 56 11 31 -10 88 -39 103 -14 7 -120 11 -302 11 l-281 0 -24 -25z"/>
 <path d="M1845 1895 c-46 -45 -24 -125 40 -141 13 -3 72 -4 130 -2 98 3 108 5 126 27 27 33 25 86 -6 116 -23 24 -30 25 -145 25 -115 0 -122 -1 -145 -25z"/>
 <path d="M2995 1895 c-31 -30 -33 -83 -6 -116 18 -22 28 -24 126 -27 58 -2 117 -1 130 2 64 16 86 96 40 141 -23 24 -30 25 -145 25 -115 0 -122 -1 -145 -25z"/>
 <path d="M2120 1513 c-44 -44 -82 -90 -85 -106 -14 -55 29 -107 87 -107 12 0 55 34 109 87 75 73 89 92 89 118 0 50 -33 85 -82 85 -36 0 -47 -7 -118 -77z"/>
 <path d="M2831 1564 c-40 -51 -30 -81 60 -172 45 -45 93 -85 106 -88 33 -9 78 12 92 42 24 53 15 73 -73 160 -77 78 -86 84 -124 84 -32 0 -45 -6 -61 -26z"/>
 <path d="M2509 1431 c-29 -29 -29 -31 -29 -145 0 -106 2 -117 24 -142 33 -39 89 -39 122 0 22 25 24 36 24 142 0 114 0 116 -29 145 -18 17 -40 29 -56 29 -16 0 -38 -12 -56 -29z"/>
 </g>

</svg>